#!OML:ASF X:\für Bonn\!DataBase\2005_08_11_Bastian_Final\c3d\Bastian.ASF
:FULLY-SPECIFIED
:DEGREES
86
root 2.33278 21.8269 -28.7447 542.742 -189.201 -182.597
lowerback 19.1426 -1.77456 2.42448
upperback 5.48593 -1.82371 0.0699352
thorax -4.8618 -0.888333 -0.886516
lowerneck -4.68866 -5.46103 -2.33976
upperneck -10.3099 -6.59884 10.0178
head -2.05003 -3.44685 3.69563
rclavicle 1.98785e-014 -1.31198e-014
rhumerus -45.4058 11.6777 -91.039
rradius 68.4861
rwrist 7.6925
rhand -20.7081 17.9381
rfingers 7.12502
rthumb 5.65619 -11.9664
lclavicle 1.98785e-014 -1.31198e-014
lhumerus -33.9163 -4.43095 78.8874
lradius 83.4687
lwrist -160.126
lhand -29.4072 13.961
lfingers 7.12502
lthumb -2.745 43.9231
rfemur -38.6837 -11.9506 23.9447
rtibia 77.0303
rfoot -18.1013 3.10736
rtoes -14.9467
lfemur -39.0653 3.79292 -17.3808
ltibia 71.5216
lfoot 1.88678 -9.23751
ltoes -35.2787
87
root 2.33773 21.7044 -28.5028 542.778 -189.188 -182.41
lowerback 18.9852 -1.78208 2.32556
upperback 5.36112 -1.85779 0.0494928
thorax -4.91203 -0.906486 -0.846091
lowerneck -4.89496 -5.49929 -2.28868
upperneck -10.1641 -6.66874 9.89572
head -1.96589 -3.47265 3.62899
rclavicle 6.55989e-015 1.90833e-014
rhumerus -45.3694 10.5954 -90.9606
rradius 65.3998
rwrist 6.88935
rhand -21.5187 16.8457
rfingers 7.12502
rthumb 4.87355 -13.0782
lclavicle 6.55989e-015 1.90833e-014
lhumerus -34.591 -3.94178 78.9731
lradius 80.5274
lwrist -161.384
lhand -28.7515 13.4244
lfingers 7.12502
lthumb -2.11168 43.3937
rfemur -38.6018 -11.8622 23.6553
rtibia 74.9583
rfoot -19.3924 2.40504
rtoes -14.353
lfemur -38.4961 3.78573 -17.7283
ltibia 69.1947
lfoot 2.03781 -9.25037
ltoes -35.4481
88
root 2.3435 21.5767 -28.2574 542.881 -189.175 -182.124
lowerback 18.7949 -1.7851 2.13694
upperback 5.18683 -1.904 0.0166812
thorax -4.99578 -0.930708 -0.765268
lowerneck -5.09482 -5.52971 -2.26776
upperneck -10.0385 -6.72625 9.76169
head -1.8903 -3.49163 3.56524
rclavicle -5.1684e-015 -5.96354e-015
rhumerus -45.4516 9.57078 -90.792
rradius 62.4589
rwrist 5.75636
rhand -22.0385 16.111
rfingers 7.12502
rthumb 4.37164 -13.8239
lclavicle -5.1684e-015 -5.96354e-015
lhumerus -35.2591 -3.33166 79.0258
lradius 77.5873
lwrist -162.68
lhand -28.162 12.8286
lfingers 7.12502
lthumb -1.54234 42.8028
rfemur -38.5177 -11.7778 23.2524
rtibia 72.8546
rfoot -20.6963 1.67189
rtoes -14.0622
lfemur -37.871 3.79629 -18.1868
ltibia 66.7524
lfoot 2.18124 -9.27888
ltoes -35.5737
89
root 2.34917 21.4402 -28.0078 542.878 -189.163 -182
lowerback 18.6593 -1.80313 2.11599
upperback 5.00304 -1.93501 0.0133952
thorax -5.1215 -0.948497 -0.750087
lowerneck -5.24201 -5.55677 -2.22636
upperneck -9.91557 -6.78081 9.60024
head -1.82704 -3.51067 3.49082
rclavicle 2.96189e-014 -8.34896e-015
rhumerus -45.6813 8.46652 -90.5551
rradius 59.7087
rwrist 4.78682
rhand -22.3973 15.4295
rfingers 7.12502
rthumb 4.02508 -14.5123
lclavicle 2.96189e-014 -8.34896e-015
lhumerus -35.8812 -2.63 78.9962
lradius 74.5807
lwrist -163.894
lhand -27.8243 12.0404
lfingers 7.12502
lthumb -1.21626 42.0166
rfemur -38.2429 -11.6883 23.0127
rtibia 70.6521
rfoot -21.9453 0.920572
rtoes -14.924
lfemur -37.0803 3.86558 -18.448
ltibia 64.2498
lfoot 2.33699 -9.36774
ltoes -35.6398
90
root 2.35488 21.2952 -27.7478 542.662 -189.067 -182.173
lowerback 18.5905 -1.82125 2.37095
upperback 4.86188 -1.91028 0.0604565
thorax -5.24162 -0.940717 -0.84944
lowerneck -5.43186 -5.58046 -2.16188
upperneck -9.71877 -6.83544 9.4463
head -1.7329 -3.52816 3.41082
rclavicle -2.19657e-014 -9.14409e-015
rhumerus -46.0324 7.38268 -90.2879
rradius 57.1165
rwrist 3.62457
rhand -22.7911 14.8591
rfingers 7.12502
rthumb 3.64488 -15.0895
lclavicle -2.19657e-014 -9.14409e-015
lhumerus -36.4706 -1.85902 78.8863
lradius 71.5494
lwrist -165.17
lhand -27.3484 11.295
lfingers 7.12502
lthumb -0.756591 41.2734
rfemur -37.5903 -11.4701 23.0443
rtibia 68.2944
rfoot -23.144 0.200393
rtoes -15.6415
lfemur -36.0174 4.07858 -18.3553
ltibia 61.7151
lfoot 2.47154 -9.52568
ltoes -36.2559
91
root 2.36169 21.1402 -27.4771 542.432 -188.906 -182.378
lowerback 18.3809 -1.81912 2.65794
upperback 4.75641 -1.85916 0.0964428
thorax -5.24893 -0.91979 -0.988814
lowerneck -5.62555 -5.59 -2.07262
upperneck -9.55337 -6.86885 9.30274
head -1.65079 -3.5368 3.3317
rclavicle 3.02153e-014 -1.35174e-014
rhumerus -46.3687 6.30731 -90.0177
rradius 54.583
rwrist 2.39157
rhand -23.0378 13.9775
rfingers 7.12502
rthumb 3.40657 -15.975
lclavicle 3.02153e-014 -1.35174e-014
lhumerus -36.9255 -1.01884 78.686
lradius 68.4152
lwrist -166.395
lhand -26.7596 10.6094
lfingers 7.12502
lthumb -0.187901 40.5891
rfemur -36.8076 -11.1657 23.0845
rtibia 65.8589
rfoot -24.164 -0.4211
rtoes -15.992
lfemur -34.8921 4.37033 -18.2136
ltibia 59.1969
lfoot 2.66143 -9.66618
ltoes -37.2483
